<?xml version="1.0" standalone="no"?><!DOCTYPE svg PUBLIC "-//W3C//DTD SVG 1.1//EN" "http://www.w3.org/Graphics/SVG/1.1/DTD/svg11.dtd"><svg t="1626769657176" class="icon" viewBox="0 0 1024 1024" version="1.1" xmlns="http://www.w3.org/2000/svg" p-id="1190" xmlns:xlink="http://www.w3.org/1999/xlink" width="200" height="200"><defs><style type="text/css"></style></defs><path d="M557.12 512l313.6-313.28a32.128 32.128 0 1 0-45.44-45.44L512 466.88l-313.28-313.6a32.128 32.128 0 0 0-45.44 45.44L466.88 512l-313.6 313.28a32 32 0 0 0 0 45.44 32 32 0 0 0 45.44 0L512 557.12l313.28 313.6a32 32 0 0 0 45.44 0 32 32 0 0 0 0-45.44L557.12 512z" p-id="1191" fill="#515151"></path></svg>