<?xml version="1.0" standalone="no"?><!DOCTYPE svg PUBLIC "-//W3C//DTD SVG 1.1//EN" "http://www.w3.org/Graphics/SVG/1.1/DTD/svg11.dtd"><svg t="1625219627329" class="icon" viewBox="0 0 1024 1024" version="1.1" xmlns="http://www.w3.org/2000/svg" p-id="3427" xmlns:xlink="http://www.w3.org/1999/xlink" width="200" height="200"><defs><style type="text/css"></style></defs><path d="M887.466667 626.915556L513.137778 790.755556 136.533333 625.777778V250.311111c0-75.093333 61.44-136.533333 136.533334-136.533333h477.866666c75.093333 0 136.533333 61.44 136.533334 136.533333v376.604445z" fill="#FFDD52" p-id="3428"></path><path d="M513.137778 790.755556L232.106667 914.773333c-34.133333 14.791111-75.093333 0-89.884445-35.271111-3.413333-9.102222-5.688889-18.204444-5.688889-27.306666V625.777778l376.604445 164.977778z" fill="#FFC92B" p-id="3429"></path><path d="M887.466667 626.915556v225.28c0 9.102222-2.275556 19.342222-5.688889 27.306666-14.791111 34.133333-55.751111 50.062222-89.884445 35.271111L513.137778 790.755556 887.466667 626.915556z" fill="#FFDD52" p-id="3430"></path><path d="M466.488889 409.6v-45.511111c0-25.031111 20.48-45.511111 45.511111-45.511111s45.511111 20.48 45.511111 45.511111v45.511111h45.511111c25.031111 0 45.511111 20.48 45.511111 45.511111s-20.48 45.511111-45.511111 45.511111h-45.511111v45.511111c0 25.031111-20.48 45.511111-45.511111 45.511111s-45.511111-20.48-45.511111-45.511111v-45.511111h-45.511111c-25.031111 0-45.511111-20.48-45.511111-45.511111s20.48-45.511111 45.511111-45.511111h45.511111z" fill="#FFA806" p-id="3431"></path></svg>